<mxfile host="app.diagrams.net" modified="2022-08-10T07:01:35.672Z" agent="5.0 (X11; Linux x86_64) AppleWebKit/537.36 (KHTML, like Gecko) Chrome/103.0.0.0 Safari/537.36" etag="EykLWksr93PH86y7f5Yt" version="20.2.3" type="github">
  <diagram id="MprTWvfM2DRxND-42OJu" name="Page-1">
    <mxGraphModel dx="1422" dy="752" grid="1" gridSize="20" guides="1" tooltips="1" connect="1" arrows="1" fold="1" page="1" pageScale="1" pageWidth="583" pageHeight="827" math="0" shadow="0">
      <root>
        <mxCell id="0" />
        <mxCell id="1" parent="0" />
        <mxCell id="6Q7j2z6h3R7BBuQkZwJ0-6" style="edgeStyle=orthogonalEdgeStyle;rounded=0;orthogonalLoop=1;jettySize=auto;html=1;exitX=1;exitY=0.5;exitDx=0;exitDy=0;entryX=0;entryY=0.5;entryDx=0;entryDy=0;" parent="1" source="6Q7j2z6h3R7BBuQkZwJ0-2" target="6Q7j2z6h3R7BBuQkZwJ0-3" edge="1">
          <mxGeometry relative="1" as="geometry" />
        </mxCell>
        <mxCell id="6Q7j2z6h3R7BBuQkZwJ0-2" value="" style="rounded=0;whiteSpace=wrap;html=1;fillColor=#FF9999;rotation=0;" parent="1" vertex="1">
          <mxGeometry x="100" y="260" width="120" height="60" as="geometry" />
        </mxCell>
        <mxCell id="6Q7j2z6h3R7BBuQkZwJ0-3" value="" style="rounded=0;whiteSpace=wrap;html=1;fillColor=#FF9999;rotation=0;" parent="1" vertex="1">
          <mxGeometry x="340" y="384" width="120" height="60" as="geometry" />
        </mxCell>
        <mxCell id="6Q7j2z6h3R7BBuQkZwJ0-4" value="" style="rounded=0;whiteSpace=wrap;html=1;fillColor=#FF9999;rotation=0;" parent="1" vertex="1">
          <mxGeometry x="550" y="210" width="120" height="60" as="geometry" />
        </mxCell>
        <mxCell id="6Q7j2z6h3R7BBuQkZwJ0-7" value="" style="endArrow=classic;html=1;rounded=0;exitX=0;exitY=0.5;exitDx=0;exitDy=0;entryX=1;entryY=0.5;entryDx=0;entryDy=0;" parent="1" source="6Q7j2z6h3R7BBuQkZwJ0-4" target="6Q7j2z6h3R7BBuQkZwJ0-3" edge="1">
          <mxGeometry width="50" height="50" relative="1" as="geometry">
            <mxPoint x="390" y="410" as="sourcePoint" />
            <mxPoint x="440" y="360" as="targetPoint" />
          </mxGeometry>
        </mxCell>
      </root>
    </mxGraphModel>
  </diagram>
</mxfile>
